<svg xmlns="http://www.w3.org/2000/svg" version="1.1" xmlns:xlink="http://www.w3.org/1999/xlink" xmlns:svgjs="http://svgjs.com/svgjs" width="1440" height="560" preserveAspectRatio="none" viewBox="0 0 1440 560"><g mask="url(&quot;#SvgjsMask1054&quot;)" fill="none"><path d="M1512 560L0 560 L0 347.05Q42.42 269.47, 120 311.89Q209.15 281.04, 240 370.19Q240.79 298.98, 312 299.76Q362.38 230.14, 432 280.53Q513.29 241.81, 552 323.1Q634.7 285.8, 672 368.5Q703.14 279.64, 792 310.79Q813.06 259.86, 864 280.92Q932.28 229.2, 984 297.48Q1062.12 255.6, 1104 333.72Q1149.22 306.94, 1176 352.16Q1204.33 260.49, 1296 288.81Q1339.44 260.25, 1368 303.69Q1422.52 286.21, 1440 340.73Q1446.13 274.87, 1512 281z" fill="rgba(139, 92, 246, 1)"></path><path d="M1464 560L0 560 L0 410.57Q46.07 384.64, 72 430.72Q95.62 334.34, 192 357.96Q262.68 308.64, 312 379.32Q392.84 340.16, 432 421.01Q464.29 333.3, 552 365.59Q634.16 327.75, 672 409.91Q693.64 359.55, 744 381.19Q774.42 339.62, 816 370.04Q902.52 336.56, 936 423.09Q939.71 354.79, 1008 358.5Q1050.18 328.69, 1080 370.87Q1149.99 320.86, 1200 390.84Q1253.35 372.18, 1272 425.53Q1306.05 339.57, 1392 373.62Q1442.7 352.32, 1464 403.02z" fill="rgba(167, 139, 250, 1)"></path><path d="M1560 560L0 560 L0 429.01Q51.16 408.17, 72 459.34Q124.65 439.99, 144 492.64Q186.02 462.66, 216 504.68Q231.17 447.85, 288 463.01Q307.94 410.95, 360 430.89Q429.58 380.47, 480 450.05Q548.19 398.25, 600 466.44Q648.9 443.34, 672 492.24Q680.65 428.89, 744 437.55Q813.39 386.94, 864 456.33Q937.38 409.7, 984 483.08Q1027.17 454.25, 1056 497.43Q1101.62 471.05, 1128 516.67Q1130.88 447.54, 1200 450.42Q1246.66 377.09, 1320 423.75Q1403.85 387.6, 1440 471.44Q1508.67 420.11, 1560 488.78z" fill="rgba(221, 214, 254, 1)"></path><path d="M1488 560L0 560 L0 509.01Q73.08 510.09, 72 583.17Q89.77 480.94, 192 498.71Q261.87 448.58, 312 518.45Q394.51 480.97, 432 563.48Q476.47 535.95, 504 580.42Q534.63 491.05, 624 521.68Q667 492.68, 696 535.68Q717.81 485.49, 768 507.3Q796.86 464.15, 840 493.01Q901.39 482.4, 912 543.8Q984.53 496.33, 1032 568.86Q1061.38 478.24, 1152 507.62Q1196.12 479.74, 1224 523.86Q1302.56 482.42, 1344 560.98Q1370.2 515.18, 1416 541.39Q1437.87 491.25, 1488 513.12z" fill="rgba(255, 255, 255, 1)"></path></g><defs><mask id="SvgjsMask1054"><rect width="1440" height="560" fill="#ffffff"></rect></mask></defs></svg>